<?xml version="1.0" encoding="UTF-8" standalone="no"?><svg xmlns="http://www.w3.org/2000/svg" xmlns:xlink="http://www.w3.org/1999/xlink" height="1246" version="1.1" width="1342.17724609375"><defs/><g><g transform="translate(-38,-54) scale(1,1)"><path d="M 80.04118625710227 489.68 C 80.04118625710227 484.886167936 83.92702858204773 481 88.720458984375 481 C 93.51388938670227 481 97.39973171164773 484.886167936 97.39973171164773 489.68 C 97.39973171164773 494.473832064 93.51388938670227 498.36 88.720458984375 498.36 C 83.92702858204773 498.36 80.04118625710227 494.473832064 80.04118625710227 489.68 Z" fill="#ffffff" stroke="none"/></g><g transform="translate(-38,-54) scale(1,1)"><path d="M 80.04118625710227 489.68 C 80.04118625710227 484.886167936 83.92702858204773 481 88.720458984375 481 C 93.51388938670227 481 97.39973171164773 484.886167936 97.39973171164773 489.68 C 97.39973171164773 494.473832064 93.51388938670227 498.36 88.720458984375 498.36 C 83.92702858204773 498.36 80.04118625710227 494.473832064 80.04118625710227 489.68 Z" fill="none" stroke="#000000" stroke-miterlimit="10"/></g><g transform="translate(-38,-54) scale(1,1)"><path d="M 88.720458984375 498.36 L 88.720458984375 515.64" fill="none" stroke="#000000" stroke-miterlimit="10"/></g><g transform="translate(-38,-54) scale(1,1)"><path d="M 79.53064080255682 504.84 L 97.91027716619318 504.84" fill="none" stroke="#000000" stroke-miterlimit="10"/></g><g transform="translate(-38,-54) scale(1,1)"><path d="M 88.720458984375 515.64 L 75.95682262073863 533" fill="none" stroke="#000000" stroke-miterlimit="10"/></g><g transform="translate(-38,-54) scale(1,1)"><path d="M 88.720458984375 515.64 L 101.48409534801137 533" fill="none" stroke="#000000" stroke-miterlimit="10"/></g><g transform="translate(-38,-54) scale(1,1)"><g><path fill="none" stroke="none"/><text fill="#000000" font-family="Arial" font-size="13px" font-style="normal" font-weight="bold" stroke="none" text-decoration="none" x="68.5" y="552">Admin</text></g></g><g transform="translate(-38,-54) scale(1,1)"><path d="M 75.24162571022727 161.68 C 75.24162571022727 156.886167936 79.12746803517273 153 83.9208984375 153 C 88.71432883982727 153 92.60017116477273 156.886167936 92.60017116477273 161.68 C 92.60017116477273 166.47383206400002 88.71432883982727 170.36 83.9208984375 170.36 C 79.12746803517273 170.36 75.24162571022727 166.47383206400002 75.24162571022727 161.68 Z" fill="#ffffff" stroke="none"/></g><g transform="translate(-38,-54) scale(1,1)"><path d="M 75.24162571022727 161.68 C 75.24162571022727 156.886167936 79.12746803517273 153 83.9208984375 153 C 88.71432883982727 153 92.60017116477273 156.886167936 92.60017116477273 161.68 C 92.60017116477273 166.47383206400002 88.71432883982727 170.36 83.9208984375 170.36 C 79.12746803517273 170.36 75.24162571022727 166.47383206400002 75.24162571022727 161.68 Z" fill="none" stroke="#000000" stroke-miterlimit="10"/></g><g transform="translate(-38,-54) scale(1,1)"><path d="M 83.9208984375 170.36 L 83.9208984375 187.64" fill="none" stroke="#000000" stroke-miterlimit="10"/></g><g transform="translate(-38,-54) scale(1,1)"><path d="M 74.73108025568182 176.84 L 93.11071661931818 176.84" fill="none" stroke="#000000" stroke-miterlimit="10"/></g><g transform="translate(-38,-54) scale(1,1)"><path d="M 83.9208984375 187.64 L 71.15726207386363 205" fill="none" stroke="#000000" stroke-miterlimit="10"/></g><g transform="translate(-38,-54) scale(1,1)"><path d="M 83.9208984375 187.64 L 96.68453480113637 205" fill="none" stroke="#000000" stroke-miterlimit="10"/></g><g transform="translate(-38,-54) scale(1,1)"><g><path fill="none" stroke="none"/><text fill="#000000" font-family="Arial" font-size="13px" font-style="normal" font-weight="bold" stroke="none" text-decoration="none" x="52.5" y="224">Candidate</text></g></g><g transform="translate(-38,-54) scale(1,1)"><path d="M 80.35978977272727 841.6800000000001 C 80.35978977272727 836.8861679360001 84.24563209767273 833 89.0390625 833 C 93.83249290232727 833 97.71833522727273 836.8861679360001 97.71833522727273 841.6800000000001 C 97.71833522727273 846.473832064 93.83249290232727 850.36 89.0390625 850.36 C 84.24563209767273 850.36 80.35978977272727 846.473832064 80.35978977272727 841.6800000000001 Z" fill="#ffffff" stroke="none"/></g><g transform="translate(-38,-54) scale(1,1)"><path d="M 80.35978977272727 841.6800000000001 C 80.35978977272727 836.8861679360001 84.24563209767273 833 89.0390625 833 C 93.83249290232727 833 97.71833522727273 836.8861679360001 97.71833522727273 841.6800000000001 C 97.71833522727273 846.473832064 93.83249290232727 850.36 89.0390625 850.36 C 84.24563209767273 850.36 80.35978977272727 846.473832064 80.35978977272727 841.6800000000001 Z" fill="none" stroke="#000000" stroke-miterlimit="10"/></g><g transform="translate(-38,-54) scale(1,1)"><path d="M 89.0390625 850.36 L 89.0390625 867.64" fill="none" stroke="#000000" stroke-miterlimit="10"/></g><g transform="translate(-38,-54) scale(1,1)"><path d="M 79.84924431818182 856.84 L 98.22888068181818 856.84" fill="none" stroke="#000000" stroke-miterlimit="10"/></g><g transform="translate(-38,-54) scale(1,1)"><path d="M 89.0390625 867.64 L 76.27542613636363 885" fill="none" stroke="#000000" stroke-miterlimit="10"/></g><g transform="translate(-38,-54) scale(1,1)"><path d="M 89.0390625 867.64 L 101.80269886363637 885" fill="none" stroke="#000000" stroke-miterlimit="10"/></g><g transform="translate(-38,-54) scale(1,1)"><g><path fill="none" stroke="none"/><text fill="#000000" font-family="Arial" font-size="13px" font-style="normal" font-weight="bold" stroke="none" text-decoration="none" x="60.5" y="904">Recruiter</text></g></g><g transform="translate(-38,-54) scale(1,1)"><path d="M 1336.4093503196023 489.68 C 1336.4093503196023 484.886167936 1340.2951926445478 481 1345.088623046875 481 C 1349.8820534492022 481 1353.7678957741477 484.886167936 1353.7678957741477 489.68 C 1353.7678957741477 494.473832064 1349.8820534492022 498.36 1345.088623046875 498.36 C 1340.2951926445478 498.36 1336.4093503196023 494.473832064 1336.4093503196023 489.68 Z" fill="#ffffff" stroke="none"/></g><g transform="translate(-38,-54) scale(1,1)"><path d="M 1336.4093503196023 489.68 C 1336.4093503196023 484.886167936 1340.2951926445478 481 1345.088623046875 481 C 1349.8820534492022 481 1353.7678957741477 484.886167936 1353.7678957741477 489.68 C 1353.7678957741477 494.473832064 1349.8820534492022 498.36 1345.088623046875 498.36 C 1340.2951926445478 498.36 1336.4093503196023 494.473832064 1336.4093503196023 489.68 Z" fill="none" stroke="#000000" stroke-miterlimit="10"/></g><g transform="translate(-38,-54) scale(1,1)"><path d="M 1345.088623046875 498.36 L 1345.088623046875 515.64" fill="none" stroke="#000000" stroke-miterlimit="10"/></g><g transform="translate(-38,-54) scale(1,1)"><path d="M 1335.8988048650567 504.84 L 1354.2784412286933 504.84" fill="none" stroke="#000000" stroke-miterlimit="10"/></g><g transform="translate(-38,-54) scale(1,1)"><path d="M 1345.088623046875 515.64 L 1332.3249866832386 533" fill="none" stroke="#000000" stroke-miterlimit="10"/></g><g transform="translate(-38,-54) scale(1,1)"><path d="M 1345.088623046875 515.64 L 1357.8522594105114 533" fill="none" stroke="#000000" stroke-miterlimit="10"/></g><g transform="translate(-38,-54) scale(1,1)"><g><path fill="none" stroke="none"/><text fill="#000000" font-family="Arial" font-size="13px" font-style="normal" font-weight="bold" stroke="none" text-decoration="none" x="1335.700439453125" y="552">DB</text></g></g><g transform="translate(-38,-54) scale(1,1)"><path d="M 535 752 C 535 742.6111584 570.3695008 735 614 735 C 657.6304992 735 693 742.6111584 693 752 C 693 761.3888416 657.6304992 769 614 769 C 570.3695008 769 535 761.3888416 535 752 Z" fill="#C0C0C0" opacity="0.2" stroke="none"/></g><g transform="translate(-38,-54) scale(1,1)"><path d="M 528 745 C 528 735.6111584 563.3695008 728 607 728 C 650.6304992 728 686 735.6111584 686 745 C 686 754.3888416 650.6304992 762 607 762 C 563.3695008 762 528 754.3888416 528 745 Z" fill="#ffffff" stroke="none"/></g><g transform="translate(-38,-54) scale(1,1)"><path d="M 528 745 C 528 735.6111584 563.3695008 728 607 728 C 650.6304992 728 686 735.6111584 686 745 C 686 754.3888416 650.6304992 762 607 762 C 563.3695008 762 528 754.3888416 528 745 Z" fill="none" stroke="#000000" stroke-miterlimit="10"/></g><g transform="translate(-38,-54) scale(1,1)"><g><path fill="none" stroke="none"/><text fill="#000000" font-family="Arial" font-size="13px" font-style="normal" font-weight="bold" stroke="none" text-decoration="none" x="589.312255859375" y="750.5">Login</text></g></g><g transform="translate(-38,-54) scale(1,1)"><path d="M 114 519 L 479 521" fill="none" stroke="#000000" stroke-miterlimit="10"/></g><g transform="translate(-38,-54) scale(1,1)"><path d="M 123 871 L 200 872 L 200 744 L 527 745" fill="none" stroke="#000000" stroke-miterlimit="10"/></g><g transform="translate(-38,-54) scale(1,1)"><path d="M 687 745 L 1192 744 L 1192 520 L 1319 519" fill="none" stroke="#000000" stroke-miterlimit="10"/></g><g transform="translate(-38,-54) scale(1,1)"><path d="M 495 88 C 495 78.6111584 524.9969184 71 562 71 C 599.0030816 71 629 78.6111584 629 88 C 629 97.3888416 599.0030816 105 562 105 C 524.9969184 105 495 97.3888416 495 88 Z" fill="#C0C0C0" opacity="0.2" stroke="none"/></g><g transform="translate(-38,-54) scale(1,1)"><path d="M 488 81 C 488 71.6111584 517.9969184 64 555 64 C 592.0030816 64 622 71.6111584 622 81 C 622 90.3888416 592.0030816 98 555 98 C 517.9969184 98 488 90.3888416 488 81 Z" fill="#ffffff" stroke="none"/></g><g transform="translate(-38,-54) scale(1,1)"><path d="M 488 81 C 488 71.6111584 517.9969184 64 555 64 C 592.0030816 64 622 71.6111584 622 81 C 622 90.3888416 592.0030816 98 555 98 C 517.9969184 98 488 90.3888416 488 81 Z" fill="none" stroke="#000000" stroke-miterlimit="10"/></g><g transform="translate(-38,-54) scale(1,1)"><g><path fill="none" stroke="none"/><text fill="#000000" font-family="Arial" font-size="13px" font-style="normal" font-weight="bold" stroke="none" text-decoration="none" x="512.029541015625" y="86.5">Apply to a job</text></g></g><g transform="translate(-38,-54) scale(1,1)"><path d="M 121 191 L 184 192 L 184 80 L 487 81" fill="none" stroke="#000000" stroke-miterlimit="10"/></g><g transform="translate(-38,-54) scale(1,1)"><path d="M 487 264 C 487 254.6111584 525.9512224 247 574 247 C 622.0487776 247 661 254.6111584 661 264 C 661 273.3888416 622.0487776 281 574 281 C 525.9512224 281 487 273.3888416 487 264 Z" fill="#C0C0C0" opacity="0.2" stroke="none"/></g><g transform="translate(-38,-54) scale(1,1)"><path d="M 480 257 C 480 247.6111584 518.9512224 240 567 240 C 615.0487776 240 654 247.6111584 654 257 C 654 266.3888416 615.0487776 274 567 274 C 518.9512224 274 480 266.3888416 480 257 Z" fill="#ffffff" stroke="none"/></g><g transform="translate(-38,-54) scale(1,1)"><path d="M 480 257 C 480 247.6111584 518.9512224 240 567 240 C 615.0487776 240 654 247.6111584 654 257 C 654 266.3888416 615.0487776 274 567 274 C 518.9512224 274 480 266.3888416 480 257 Z" fill="none" stroke="#000000" stroke-miterlimit="10"/></g><g transform="translate(-38,-54) scale(1,1)"><g><path fill="none" stroke="none"/><text fill="#000000" font-family="Arial" font-size="13px" font-style="normal" font-weight="bold" stroke="none" text-decoration="none" x="509.925048828125" y="262.5">Search on website</text></g></g><g transform="translate(-38,-54) scale(1,1)"><path d="M 121 191 L 184 192 L 184 256 L 479 257" fill="none" stroke="#000000" stroke-miterlimit="10"/></g><g transform="translate(-38,-54) scale(1,1)"><path d="M 655 257 L 1192 256 L 1192 520 L 1319 519" fill="none" stroke="#000000" stroke-miterlimit="10"/></g><g transform="translate(-38,-54) scale(1,1)"><path d="M 623 81 L 1192 80 L 1192 520 L 1319 519" fill="none" stroke="#000000" stroke-miterlimit="10"/></g><g transform="translate(-38,-54) scale(1,1)"><path d="M 279 1064 C 279 1054.6111584 327.5770992 1047 387.5 1047 C 447.4229008 1047 496 1054.6111584 496 1064 C 496 1073.3888416 447.4229008 1081 387.5 1081 C 327.5770992 1081 279 1073.3888416 279 1064 Z" fill="#C0C0C0" opacity="0.2" stroke="none"/></g><g transform="translate(-38,-54) scale(1,1)"><path d="M 272 1057 C 272 1047.6111584 320.5770992 1040 380.5 1040 C 440.4229008 1040 489 1047.6111584 489 1057 C 489 1066.3888416 440.4229008 1074 380.5 1074 C 320.5770992 1074 272 1066.3888416 272 1057 Z" fill="#ffffff" stroke="none"/></g><g transform="translate(-38,-54) scale(1,1)"><path d="M 272 1057 C 272 1047.6111584 320.5770992 1040 380.5 1040 C 440.4229008 1040 489 1047.6111584 489 1057 C 489 1066.3888416 440.4229008 1074 380.5 1074 C 320.5770992 1074 272 1066.3888416 272 1057 Z" fill="none" stroke="#000000" stroke-miterlimit="10"/></g><g transform="translate(-38,-54) scale(1,1)"><g><path fill="none" stroke="none"/><text fill="#000000" font-family="Arial" font-size="13px" font-style="normal" font-weight="bold" stroke="none" text-decoration="none" x="341.604736328125" y="1062.5">View History</text></g></g><g transform="translate(-38,-54) scale(1,1)"><path d="M 807 1096 C 807 1086.6111584 854.9055264 1079 914 1079 C 973.0944736 1079 1021 1086.6111584 1021 1096 C 1021 1105.3888416 973.0944736 1113 914 1113 C 854.9055264 1113 807 1105.3888416 807 1096 Z" fill="#C0C0C0" opacity="0.2" stroke="none"/></g><g transform="translate(-38,-54) scale(1,1)"><path d="M 800 1089 C 800 1079.6111584 847.9055264 1072 907 1072 C 966.0944736 1072 1014 1079.6111584 1014 1089 C 1014 1098.3888416 966.0944736 1106 907 1106 C 847.9055264 1106 800 1098.3888416 800 1089 Z" fill="#ffffff" stroke="none"/></g><g transform="translate(-38,-54) scale(1,1)"><path d="M 800 1089 C 800 1079.6111584 847.9055264 1072 907 1072 C 966.0944736 1072 1014 1079.6111584 1014 1089 C 1014 1098.3888416 966.0944736 1106 907 1106 C 847.9055264 1106 800 1098.3888416 800 1089 Z" fill="none" stroke="#000000" stroke-miterlimit="10"/></g><g transform="translate(-38,-54) scale(1,1)"><g><path fill="none" stroke="none"/><text fill="#000000" font-family="Arial" font-size="13px" font-style="normal" font-weight="bold" stroke="none" text-decoration="none" x="869.183837890625" y="1094.5">View Details</text></g></g><g transform="translate(-38,-54) scale(1,1)"><path d="M 543 880 C 543 870.6111584 582.17508 863 630.5 863 C 678.82492 863 718 870.6111584 718 880 C 718 889.3888416 678.82492 897 630.5 897 C 582.17508 897 543 889.3888416 543 880 Z" fill="#C0C0C0" opacity="0.2" stroke="none"/></g><g transform="translate(-38,-54) scale(1,1)"><path d="M 536 873 C 536 863.6111584 575.17508 856 623.5 856 C 671.82492 856 711 863.6111584 711 873 C 711 882.3888416 671.82492 890 623.5 890 C 575.17508 890 536 882.3888416 536 873 Z" fill="#ffffff" stroke="none"/></g><g transform="translate(-38,-54) scale(1,1)"><path d="M 536 873 C 536 863.6111584 575.17508 856 623.5 856 C 671.82492 856 711 863.6111584 711 873 C 711 882.3888416 671.82492 890 623.5 890 C 575.17508 890 536 882.3888416 536 873 Z" fill="none" stroke="#000000" stroke-miterlimit="10"/></g><g transform="translate(-38,-54) scale(1,1)"><g><path fill="none" stroke="none"/><text fill="#000000" font-family="Arial" font-size="13px" font-style="normal" font-weight="bold" stroke="none" text-decoration="none" x="566.07275390625" y="878.5">Manage Candidate</text></g></g><g transform="translate(-38,-54) scale(1,1)"><path d="M 559 1096 C 559 1086.6111584 601.7568016 1079 654.5 1079 C 707.2431984 1079 750 1086.6111584 750 1096 C 750 1105.3888416 707.2431984 1113 654.5 1113 C 601.7568016 1113 559 1105.3888416 559 1096 Z" fill="#C0C0C0" opacity="0.2" stroke="none"/></g><g transform="translate(-38,-54) scale(1,1)"><path d="M 552 1089 C 552 1079.6111584 594.7568016 1072 647.5 1072 C 700.2431984 1072 743 1079.6111584 743 1089 C 743 1098.3888416 700.2431984 1106 647.5 1106 C 594.7568016 1106 552 1098.3888416 552 1089 Z" fill="#ffffff" stroke="none"/></g><g transform="translate(-38,-54) scale(1,1)"><path d="M 552 1089 C 552 1079.6111584 594.7568016 1072 647.5 1072 C 700.2431984 1072 743 1079.6111584 743 1089 C 743 1098.3888416 700.2431984 1106 647.5 1106 C 594.7568016 1106 552 1098.3888416 552 1089 Z" fill="none" stroke="#000000" stroke-miterlimit="10"/></g><g transform="translate(-38,-54) scale(1,1)"><g><path fill="none" stroke="none"/><text fill="#000000" font-family="Arial" font-size="13px" font-style="normal" font-weight="bold" stroke="none" text-decoration="none" x="584.293212890625" y="1094.5">Job Request History</text></g></g><g transform="translate(-38,-54) scale(1,1)"><path d="M 404 1039 L 599 891" fill="none" stroke="#000000" stroke-dasharray="3" stroke-miterlimit="10"/></g><g transform="translate(-38,-54) scale(1,1)"><path d="M 593.4497926856176 900.4971152866212 L 599 891 L 588.3599361501286 893.7908853918893" fill="none" stroke="#000000" stroke-miterlimit="10"/></g><g transform="translate(-38,-54) scale(1,1)"><g><path fill="none" stroke="none"/><text fill="#000000" font-family="Arial" font-size="13px" font-style="normal" font-weight="normal" stroke="none" text-decoration="none" x="454.5" y="946">«include»</text></g></g><g transform="translate(-38,-54) scale(1,1)"><path d="M 645 1071 L 625 891" fill="none" stroke="#000000" stroke-dasharray="3" stroke-miterlimit="10"/></g><g transform="translate(-38,-54) scale(1,1)"><path d="M 630.3060509220539 900.6356537719332 L 625 891 L 621.9385084650058 901.5653807116051" fill="none" stroke="#000000" stroke-miterlimit="10"/></g><g transform="translate(-38,-54) scale(1,1)"><g><path fill="none" stroke="none"/><text fill="#000000" font-family="Arial" font-size="13px" font-style="normal" font-weight="normal" stroke="none" text-decoration="none" x="577.5" y="989">«include»</text></g></g><g transform="translate(-38,-54) scale(1,1)"><path d="M 883 1071 L 647 891" fill="none" stroke="#000000" stroke-dasharray="3" stroke-miterlimit="10"/></g><g transform="translate(-38,-54) scale(1,1)"><path d="M 657.6334275022307 893.8160645508946 L 647 891 L 652.5277103538863 900.5102270342794" fill="none" stroke="#000000" stroke-miterlimit="10"/></g><g transform="translate(-38,-54) scale(1,1)"><g><path fill="none" stroke="none"/><text fill="#000000" font-family="Arial" font-size="13px" font-style="normal" font-weight="normal" stroke="none" text-decoration="none" x="718.5" y="1009">«include»</text></g></g><g transform="translate(-38,-54) scale(1,1)"><path d="M 959 912 C 959 902.6111584 989.4446336 895 1027 895 C 1064.5553664 895 1095 902.6111584 1095 912 C 1095 921.3888416 1064.5553664 929 1027 929 C 989.4446336 929 959 921.3888416 959 912 Z" fill="#C0C0C0" opacity="0.2" stroke="none"/></g><g transform="translate(-38,-54) scale(1,1)"><path d="M 952 905 C 952 895.6111584 982.4446336 888 1020 888 C 1057.5553664 888 1088 895.6111584 1088 905 C 1088 914.3888416 1057.5553664 922 1020 922 C 982.4446336 922 952 914.3888416 952 905 Z" fill="#ffffff" stroke="none"/></g><g transform="translate(-38,-54) scale(1,1)"><path d="M 952 905 C 952 895.6111584 982.4446336 888 1020 888 C 1057.5553664 888 1088 895.6111584 1088 905 C 1088 914.3888416 1057.5553664 922 1020 922 C 982.4446336 922 952 914.3888416 952 905 Z" fill="none" stroke="#000000" stroke-miterlimit="10"/></g><g transform="translate(-38,-54) scale(1,1)"><g><path fill="none" stroke="none"/><text fill="#000000" font-family="Arial" font-size="13px" font-style="normal" font-weight="bold" stroke="none" text-decoration="none" x="976.299560546875" y="910.5">Update Status</text></g></g><g transform="translate(-38,-54) scale(1,1)"><path d="M 951 899 L 712 880" fill="none" stroke="#000000" stroke-dasharray="3" stroke-miterlimit="10"/></g><g transform="translate(-38,-54) scale(1,1)"><path d="M 722.4643080121165 876.60909188748 L 712 880 L 721.7971172765357 885.0016490350489" fill="none" stroke="#000000" stroke-miterlimit="10"/></g><g transform="translate(-38,-54) scale(1,1)"><g><path fill="none" stroke="none"/><text fill="#000000" font-family="Arial" font-size="13px" font-style="normal" font-weight="normal" stroke="none" text-decoration="none" x="800.5" y="923">«include»</text></g></g><g transform="translate(-38,-54) scale(1,1)"><path d="M 567 1152 C 567 1142.6111584 595.8776304 1135 631.5 1135 C 667.1223696 1135 696 1142.6111584 696 1152 C 696 1161.3888416 667.1223696 1169 631.5 1169 C 595.8776304 1169 567 1161.3888416 567 1152 Z" fill="#C0C0C0" opacity="0.2" stroke="none"/></g><g transform="translate(-38,-54) scale(1,1)"><path d="M 560 1145 C 560 1135.6111584 588.8776304 1128 624.5 1128 C 660.1223696 1128 689 1135.6111584 689 1145 C 689 1154.3888416 660.1223696 1162 624.5 1162 C 588.8776304 1162 560 1154.3888416 560 1145 Z" fill="#ffffff" stroke="none"/></g><g transform="translate(-38,-54) scale(1,1)"><path d="M 560 1145 C 560 1135.6111584 588.8776304 1128 624.5 1128 C 660.1223696 1128 689 1135.6111584 689 1145 C 689 1154.3888416 660.1223696 1162 624.5 1162 C 588.8776304 1162 560 1154.3888416 560 1145 Z" fill="none" stroke="#000000" stroke-miterlimit="10"/></g><g transform="translate(-38,-54) scale(1,1)"><g><path fill="none" stroke="none"/><text fill="#000000" font-family="Arial" font-size="13px" font-style="normal" font-weight="bold" stroke="none" text-decoration="none" x="583.32275390625" y="1150.5">Manage Jobs</text></g></g><g transform="translate(-38,-54) scale(1,1)"><path d="M 439 1256 C 439 1246.6111584 461.6096176 1239 489.5 1239 C 517.3903824 1239 540 1246.6111584 540 1256 C 540 1265.3888416 517.3903824 1273 489.5 1273 C 461.6096176 1273 439 1265.3888416 439 1256 Z" fill="#C0C0C0" opacity="0.2" stroke="none"/></g><g transform="translate(-38,-54) scale(1,1)"><path d="M 432 1249 C 432 1239.6111584 454.6096176 1232 482.5 1232 C 510.3903824 1232 533 1239.6111584 533 1249 C 533 1258.3888416 510.3903824 1266 482.5 1266 C 454.6096176 1266 432 1258.3888416 432 1249 Z" fill="#ffffff" stroke="none"/></g><g transform="translate(-38,-54) scale(1,1)"><path d="M 432 1249 C 432 1239.6111584 454.6096176 1232 482.5 1232 C 510.3903824 1232 533 1239.6111584 533 1249 C 533 1258.3888416 510.3903824 1266 482.5 1266 C 454.6096176 1266 432 1258.3888416 432 1249 Z" fill="none" stroke="#000000" stroke-miterlimit="10"/></g><g transform="translate(-38,-54) scale(1,1)"><g><path fill="none" stroke="none"/><text fill="#000000" font-family="Arial" font-size="13px" font-style="normal" font-weight="bold" stroke="none" text-decoration="none" x="469.864990234375" y="1254.5">Add</text></g></g><g transform="translate(-38,-54) scale(1,1)"><path d="M 719 1240 C 719 1230.6111584 741.6096176 1223 769.5 1223 C 797.3903824 1223 820 1230.6111584 820 1240 C 820 1249.3888416 797.3903824 1257 769.5 1257 C 741.6096176 1257 719 1249.3888416 719 1240 Z" fill="#C0C0C0" opacity="0.2" stroke="none"/></g><g transform="translate(-38,-54) scale(1,1)"><path d="M 712 1233 C 712 1223.6111584 734.6096176 1216 762.5 1216 C 790.3903824 1216 813 1223.6111584 813 1233 C 813 1242.3888416 790.3903824 1250 762.5 1250 C 734.6096176 1250 712 1242.3888416 712 1233 Z" fill="#ffffff" stroke="none"/></g><g transform="translate(-38,-54) scale(1,1)"><path d="M 712 1233 C 712 1223.6111584 734.6096176 1216 762.5 1216 C 790.3903824 1216 813 1223.6111584 813 1233 C 813 1242.3888416 790.3903824 1250 762.5 1250 C 734.6096176 1250 712 1242.3888416 712 1233 Z" fill="none" stroke="#000000" stroke-miterlimit="10"/></g><g transform="translate(-38,-54) scale(1,1)"><g><path fill="none" stroke="none"/><text fill="#000000" font-family="Arial" font-size="13px" font-style="normal" font-weight="bold" stroke="none" text-decoration="none" x="737.2109375" y="1238.5">Remove</text></g></g><g transform="translate(-38,-54) scale(1,1)"><path d="M 583 1280 C 583 1270.6111584 605.6096176 1263 633.5 1263 C 661.3903824 1263 684 1270.6111584 684 1280 C 684 1289.3888416 661.3903824 1297 633.5 1297 C 605.6096176 1297 583 1289.3888416 583 1280 Z" fill="#C0C0C0" opacity="0.2" stroke="none"/></g><g transform="translate(-38,-54) scale(1,1)"><path d="M 576 1273 C 576 1263.6111584 598.6096176 1256 626.5 1256 C 654.3903824 1256 677 1263.6111584 677 1273 C 677 1282.3888416 654.3903824 1290 626.5 1290 C 598.6096176 1290 576 1282.3888416 576 1273 Z" fill="#ffffff" stroke="none"/></g><g transform="translate(-38,-54) scale(1,1)"><path d="M 576 1273 C 576 1263.6111584 598.6096176 1256 626.5 1256 C 654.3903824 1256 677 1263.6111584 677 1273 C 677 1282.3888416 654.3903824 1290 626.5 1290 C 598.6096176 1290 576 1282.3888416 576 1273 Z" fill="none" stroke="#000000" stroke-miterlimit="10"/></g><g transform="translate(-38,-54) scale(1,1)"><g><path fill="none" stroke="none"/><text fill="#000000" font-family="Arial" font-size="13px" font-style="normal" font-weight="bold" stroke="none" text-decoration="none" x="614.2236328125" y="1278.5">Edit</text></g></g><g transform="translate(-38,-54) scale(1,1)"><path d="M 507 1231 L 599 1163" fill="none" stroke="#000000" stroke-dasharray="3" stroke-miterlimit="10"/></g><g transform="translate(-38,-54) scale(1,1)"><path d="M 593.3295190716684 1172.4257968385398 L 599 1163 L 588.3253196203696 1165.655409345606" fill="none" stroke="#000000" stroke-miterlimit="10"/></g><g transform="translate(-38,-54) scale(1,1)"><g><path fill="none" stroke="none"/><text fill="#000000" font-family="Arial" font-size="13px" font-style="normal" font-weight="normal" stroke="none" text-decoration="none" x="507.5" y="1177">«include»</text></g></g><g transform="translate(-38,-54) scale(1,1)"><path d="M 626 1255 L 624 1163" fill="none" stroke="#000000" stroke-dasharray="3" stroke-miterlimit="10"/></g><g transform="translate(-38,-54) scale(1,1)"><path d="M 628.429398949577 1173.0687846806595 L 624 1163 L 620.0123521078249 1173.2517639598282" fill="none" stroke="#000000" stroke-miterlimit="10"/></g><g transform="translate(-38,-54) scale(1,1)"><g><path fill="none" stroke="none"/><text fill="#000000" font-family="Arial" font-size="13px" font-style="normal" font-weight="normal" stroke="none" text-decoration="none" x="567.5" y="1214">«include»</text></g></g><g transform="translate(-38,-54) scale(1,1)"><path d="M 734 1215 L 652 1163" fill="none" stroke="#000000" stroke-dasharray="3" stroke-miterlimit="10"/></g><g transform="translate(-38,-54) scale(1,1)"><path d="M 662.8368397620972 1164.8875656202185 L 652 1163 L 658.3280924324198 1171.997513332402" fill="none" stroke="#000000" stroke-miterlimit="10"/></g><g transform="translate(-38,-54) scale(1,1)"><g><path fill="none" stroke="none"/><text fill="#000000" font-family="Arial" font-size="13px" font-style="normal" font-weight="normal" stroke="none" text-decoration="none" x="648.5" y="1219">«include»</text></g></g><g transform="translate(-38,-54) scale(1,1)"><path d="M 123 871 L 208 872 L 535 873" fill="none" stroke="#000000" stroke-miterlimit="10"/></g><g transform="translate(-38,-54) scale(1,1)"><path d="M 123 871 L 200 872 L 200 1144 L 559 1145" fill="none" stroke="#000000" stroke-miterlimit="10"/></g><g transform="translate(-38,-54) scale(1,1)"><path d="M 88 560 L 89 831" fill="none" stroke="#000000" stroke-miterlimit="10"/></g><g transform="translate(-38,-54) scale(1,1)"><path d="M 84.75301051294956 820.8529275011517 L 89 831 L 93.1719887072058 820.8218611609515" fill="none" stroke="#000000" stroke-miterlimit="10"/></g><g transform="translate(-38,-54) scale(1,1)"><path d="M 487 528 C 487 518.6111584 524.3842192 511 570.5 511 C 616.6157808 511 654 518.6111584 654 528 C 654 537.3888416 616.6157808 545 570.5 545 C 524.3842192 545 487 537.3888416 487 528 Z" fill="#C0C0C0" opacity="0.2" stroke="none"/></g><g transform="translate(-38,-54) scale(1,1)"><path d="M 480 521 C 480 511.6111584 517.3842192 504 563.5 504 C 609.6157808 504 647 511.6111584 647 521 C 647 530.3888416 609.6157808 538 563.5 538 C 517.3842192 538 480 530.3888416 480 521 Z" fill="#ffffff" stroke="none"/></g><g transform="translate(-38,-54) scale(1,1)"><path d="M 480 521 C 480 511.6111584 517.3842192 504 563.5 504 C 609.6157808 504 647 511.6111584 647 521 C 647 530.3888416 609.6157808 538 563.5 538 C 517.3842192 538 480 530.3888416 480 521 Z" fill="none" stroke="#000000" stroke-miterlimit="10"/></g><g transform="translate(-38,-54) scale(1,1)"><g><path fill="none" stroke="none"/><text fill="#000000" font-family="Arial" font-size="13px" font-style="normal" font-weight="bold" stroke="none" text-decoration="none" x="508.95458984375" y="526.5">Manage Recruiter</text></g></g><g transform="translate(-38,-54) scale(1,1)"><path d="M 399 648 C 399 638.6111584 421.6096176 631 449.5 631 C 477.3903824 631 500 638.6111584 500 648 C 500 657.3888416 477.3903824 665 449.5 665 C 421.6096176 665 399 657.3888416 399 648 Z" fill="#C0C0C0" opacity="0.2" stroke="none"/></g><g transform="translate(-38,-54) scale(1,1)"><path d="M 392 641 C 392 631.6111584 414.6096176 624 442.5 624 C 470.3903824 624 493 631.6111584 493 641 C 493 650.3888416 470.3903824 658 442.5 658 C 414.6096176 658 392 650.3888416 392 641 Z" fill="#ffffff" stroke="none"/></g><g transform="translate(-38,-54) scale(1,1)"><path d="M 392 641 C 392 631.6111584 414.6096176 624 442.5 624 C 470.3903824 624 493 631.6111584 493 641 C 493 650.3888416 470.3903824 658 442.5 658 C 414.6096176 658 392 650.3888416 392 641 Z" fill="none" stroke="#000000" stroke-miterlimit="10"/></g><g transform="translate(-38,-54) scale(1,1)"><g><path fill="none" stroke="none"/><text fill="#000000" font-family="Arial" font-size="13px" font-style="normal" font-weight="bold" stroke="none" text-decoration="none" x="429.864990234375" y="646.5">Add</text></g></g><g transform="translate(-38,-54) scale(1,1)"><path d="M 615 632 C 615 622.6111584 637.6096176 615 665.5 615 C 693.3903824 615 716 622.6111584 716 632 C 716 641.3888416 693.3903824 649 665.5 649 C 637.6096176 649 615 641.3888416 615 632 Z" fill="#C0C0C0" opacity="0.2" stroke="none"/></g><g transform="translate(-38,-54) scale(1,1)"><path d="M 608 625 C 608 615.6111584 630.6096176 608 658.5 608 C 686.3903824 608 709 615.6111584 709 625 C 709 634.3888416 686.3903824 642 658.5 642 C 630.6096176 642 608 634.3888416 608 625 Z" fill="#ffffff" stroke="none"/></g><g transform="translate(-38,-54) scale(1,1)"><path d="M 608 625 C 608 615.6111584 630.6096176 608 658.5 608 C 686.3903824 608 709 615.6111584 709 625 C 709 634.3888416 686.3903824 642 658.5 642 C 630.6096176 642 608 634.3888416 608 625 Z" fill="none" stroke="#000000" stroke-miterlimit="10"/></g><g transform="translate(-38,-54) scale(1,1)"><g><path fill="none" stroke="none"/><text fill="#000000" font-family="Arial" font-size="13px" font-style="normal" font-weight="bold" stroke="none" text-decoration="none" x="633.2109375" y="630.5">Remove</text></g></g><g transform="translate(-38,-54) scale(1,1)"><path d="M 460 623 L 545 539" fill="none" stroke="#000000" stroke-dasharray="3" stroke-miterlimit="10"/></g><g transform="translate(-38,-54) scale(1,1)"><path d="M 540.7304228174572 549.1375889975038 L 545 539 L 534.8125950964076 543.1493109464417" fill="none" stroke="#000000" stroke-miterlimit="10"/></g><g transform="translate(-38,-54) scale(1,1)"><g><path fill="none" stroke="none"/><text fill="#000000" font-family="Arial" font-size="13px" font-style="normal" font-weight="normal" stroke="none" text-decoration="none" x="442.5" y="580">«include»</text></g></g><g transform="translate(-38,-54) scale(1,1)"><path d="M 642 607 L 579 539" fill="none" stroke="#000000" stroke-dasharray="3" stroke-miterlimit="10"/></g><g transform="translate(-38,-54) scale(1,1)"><path d="M 588.9947287721853 543.5940610325126 L 579 539 L 582.818848781658 549.3158322002071" fill="none" stroke="#000000" stroke-miterlimit="10"/></g><g transform="translate(-38,-54) scale(1,1)"><g><path fill="none" stroke="none"/><text fill="#000000" font-family="Arial" font-size="13px" font-style="normal" font-weight="normal" stroke="none" text-decoration="none" x="559.5" y="598">«include»</text></g></g><g transform="translate(-38,-54) scale(1,1)"><path d="M 712 873 L 1192 872 L 1192 520 L 1319 519" fill="none" stroke="#000000" stroke-miterlimit="10"/></g><g transform="translate(-38,-54) scale(1,1)"><path d="M 690 1145 L 1192 1144 L 1192 518 L 1319 519" fill="none" stroke="#000000" stroke-miterlimit="10"/></g><g transform="translate(-38,-54) scale(1,1)"><path d="M 648 521 L 1319 519" fill="none" stroke="#000000" stroke-miterlimit="10"/></g><g transform="translate(-38,-54) scale(1,1)"><path d="M 344 112 L 525 112 L 535 122 L 535 183 L 344 183 L 344 112" fill="#ffffff" stroke="none"/></g><g transform="translate(-38,-54) scale(1,1)"><path d="M 344 112 L 525 112 L 535 122 L 535 183 L 344 183 L 344 112 L 344 112" fill="none" stroke="#000000" stroke-miterlimit="10"/></g><g transform="translate(-38,-54) scale(1,1)"><path d="M 525 112 L 525 122 L 535 122 L 525 112" fill="none" stroke="#000000" stroke-miterlimit="10"/></g><g transform="translate(-38,-54) scale(1,1)"><g><path fill="none" stroke="none"/><text fill="#000000" font-family="Arial" font-size="13px" font-style="normal" font-weight="normal" stroke="none" text-decoration="none" x="349" y="127">All through the website. social</text><text fill="#000000" font-family="Arial" font-size="13px" font-style="normal" font-weight="normal" stroke="none" text-decoration="none" x="349" y="140">media app links should link to</text><text fill="#000000" font-family="Arial" font-size="13px" font-style="normal" font-weight="normal" stroke="none" text-decoration="none" x="349" y="153">the website.</text></g></g><g transform="translate(-38,-54) scale(1,1)"><path d="M 600 152 L 600 152" fill="none" stroke="#000000" stroke-miterlimit="10"/></g><g transform="translate(-38,-54) scale(1,1)"><path d="M 504 112 L 528 96" fill="none" stroke="#000000" stroke-miterlimit="10"/></g><g transform="translate(-38,-54) scale(1,1)"><path d="M 927 1024 C 927 1014.6111584 977.1441024 1007 1039 1007 C 1100.8558976 1007 1151 1014.6111584 1151 1024 C 1151 1033.3888416 1100.8558976 1041 1039 1041 C 977.1441024 1041 927 1033.3888416 927 1024 Z" fill="#C0C0C0" opacity="0.2" stroke="none"/></g><g transform="translate(-38,-54) scale(1,1)"><path d="M 920 1017 C 920 1007.6111584 970.1441024 1000 1032 1000 C 1093.8558976 1000 1144 1007.6111584 1144 1017 C 1144 1026.3888416 1093.8558976 1034 1032 1034 C 970.1441024 1034 920 1026.3888416 920 1017 Z" fill="#ffffff" stroke="none"/></g><g transform="translate(-38,-54) scale(1,1)"><path d="M 920 1017 C 920 1007.6111584 970.1441024 1000 1032 1000 C 1093.8558976 1000 1144 1007.6111584 1144 1017 C 1144 1026.3888416 1093.8558976 1034 1032 1034 C 970.1441024 1034 920 1026.3888416 920 1017 Z" fill="none" stroke="#000000" stroke-miterlimit="10"/></g><g transform="translate(-38,-54) scale(1,1)"><g><path fill="none" stroke="none"/><text fill="#000000" font-family="Arial" font-size="13px" font-style="normal" font-weight="bold" stroke="none" text-decoration="none" x="957.126220703125" y="1022.5">Add candidate's resume</text></g></g><g transform="translate(-38,-54) scale(1,1)"><path d="M 981 999 L 674 891" fill="none" stroke="#000000" stroke-dasharray="3" stroke-miterlimit="10"/></g><g transform="translate(-38,-54) scale(1,1)"><path d="M 684.983710102522 890.401575080936 L 674 891 L 682.1898062143816 898.3435055777793" fill="none" stroke="#000000" stroke-miterlimit="10"/></g><g transform="translate(-38,-54) scale(1,1)"><g><path fill="none" stroke="none"/><text fill="#000000" font-family="Arial" font-size="13px" font-style="normal" font-weight="normal" stroke="none" text-decoration="none" x="789.5" y="978">«include»</text></g></g><g transform="translate(-38,-54) scale(1,1)"><path d="M 239 976 C 239 966.6111584 278.17508 959 326.5 959 C 374.82492 959 414 966.6111584 414 976 C 414 985.3888416 374.82492 993 326.5 993 C 278.17508 993 239 985.3888416 239 976 Z" fill="#C0C0C0" opacity="0.2" stroke="none"/></g><g transform="translate(-38,-54) scale(1,1)"><path d="M 232 969 C 232 959.6111584 271.17508 952 319.5 952 C 367.82492 952 407 959.6111584 407 969 C 407 978.3888416 367.82492 986 319.5 986 C 271.17508 986 232 978.3888416 232 969 Z" fill="#ffffff" stroke="none"/></g><g transform="translate(-38,-54) scale(1,1)"><path d="M 232 969 C 232 959.6111584 271.17508 952 319.5 952 C 367.82492 952 407 959.6111584 407 969 C 407 978.3888416 367.82492 986 319.5 986 C 271.17508 986 232 978.3888416 232 969 Z" fill="none" stroke="#000000" stroke-miterlimit="10"/></g><g transform="translate(-38,-54) scale(1,1)"><g><path fill="none" stroke="none"/><text fill="#000000" font-family="Arial" font-size="13px" font-style="normal" font-weight="bold" stroke="none" text-decoration="none" x="262.0791015625" y="974.5">Contact Candidate</text></g></g><g transform="translate(-38,-54) scale(1,1)"><path d="M 511 392 C 511 382.6111584 536.743624 375 568.5 375 C 600.256376 375 626 382.6111584 626 392 C 626 401.3888416 600.256376 409 568.5 409 C 536.743624 409 511 401.3888416 511 392 Z" fill="#C0C0C0" opacity="0.2" stroke="none"/></g><g transform="translate(-38,-54) scale(1,1)"><path d="M 504 385 C 504 375.6111584 529.743624 368 561.5 368 C 593.256376 368 619 375.6111584 619 385 C 619 394.3888416 593.256376 402 561.5 402 C 529.743624 402 504 394.3888416 504 385 Z" fill="#ffffff" stroke="none"/></g><g transform="translate(-38,-54) scale(1,1)"><path d="M 504 385 C 504 375.6111584 529.743624 368 561.5 368 C 593.256376 368 619 375.6111584 619 385 C 619 394.3888416 593.256376 402 561.5 402 C 529.743624 402 504 394.3888416 504 385 Z" fill="none" stroke="#000000" stroke-miterlimit="10"/></g><g transform="translate(-38,-54) scale(1,1)"><g><path fill="none" stroke="none"/><text fill="#000000" font-family="Arial" font-size="13px" font-style="normal" font-weight="bold" stroke="none" text-decoration="none" x="525.13427734375" y="390.5">View Status</text></g></g><g transform="translate(-38,-54) scale(1,1)"><path d="M 121 191 L 184 192 L 184 384 L 503 385" fill="none" stroke="#000000" stroke-miterlimit="10"/></g><g transform="translate(-38,-54) scale(1,1)"><path d="M 620 385 L 1192 384 L 1192 520 L 1319 519" fill="none" stroke="#000000" stroke-miterlimit="10"/></g></g></svg>