<?xml version="1.0" encoding="UTF-8" standalone="no"?><svg xmlns="http://www.w3.org/2000/svg" xmlns:xlink="http://www.w3.org/1999/xlink" height="1110" version="1.1" width="1334.17724609375"><defs/><g><g transform="translate(-38,-54) scale(1,1)"><path d="M 72.04118625710227 345.68 C 72.04118625710227 340.886167936 75.92702858204773 337 80.720458984375 337 C 85.51388938670227 337 89.39973171164773 340.886167936 89.39973171164773 345.68 C 89.39973171164773 350.473832064 85.51388938670227 354.36 80.720458984375 354.36 C 75.92702858204773 354.36 72.04118625710227 350.473832064 72.04118625710227 345.68 Z" fill="#ffffff" stroke="none"/></g><g transform="translate(-38,-54) scale(1,1)"><path d="M 72.04118625710227 345.68 C 72.04118625710227 340.886167936 75.92702858204773 337 80.720458984375 337 C 85.51388938670227 337 89.39973171164773 340.886167936 89.39973171164773 345.68 C 89.39973171164773 350.473832064 85.51388938670227 354.36 80.720458984375 354.36 C 75.92702858204773 354.36 72.04118625710227 350.473832064 72.04118625710227 345.68 Z" fill="none" stroke="#000000" stroke-miterlimit="10"/></g><g transform="translate(-38,-54) scale(1,1)"><path d="M 80.720458984375 354.36 L 80.720458984375 371.64" fill="none" stroke="#000000" stroke-miterlimit="10"/></g><g transform="translate(-38,-54) scale(1,1)"><path d="M 71.53064080255682 360.84 L 89.91027716619318 360.84" fill="none" stroke="#000000" stroke-miterlimit="10"/></g><g transform="translate(-38,-54) scale(1,1)"><path d="M 80.720458984375 371.64 L 67.95682262073863 389" fill="none" stroke="#000000" stroke-miterlimit="10"/></g><g transform="translate(-38,-54) scale(1,1)"><path d="M 80.720458984375 371.64 L 93.48409534801137 389" fill="none" stroke="#000000" stroke-miterlimit="10"/></g><g transform="translate(-38,-54) scale(1,1)"><g><path fill="none" stroke="none"/><text fill="#000000" font-family="Arial" font-size="13px" font-style="normal" font-weight="bold" stroke="none" text-decoration="none" x="60.5" y="408">Admin</text></g></g><g transform="translate(-38,-54) scale(1,1)"><path d="M 75.24162571022727 161.68 C 75.24162571022727 156.886167936 79.12746803517273 153 83.9208984375 153 C 88.71432883982727 153 92.60017116477273 156.886167936 92.60017116477273 161.68 C 92.60017116477273 166.47383206400002 88.71432883982727 170.36 83.9208984375 170.36 C 79.12746803517273 170.36 75.24162571022727 166.47383206400002 75.24162571022727 161.68 Z" fill="#ffffff" stroke="none"/></g><g transform="translate(-38,-54) scale(1,1)"><path d="M 75.24162571022727 161.68 C 75.24162571022727 156.886167936 79.12746803517273 153 83.9208984375 153 C 88.71432883982727 153 92.60017116477273 156.886167936 92.60017116477273 161.68 C 92.60017116477273 166.47383206400002 88.71432883982727 170.36 83.9208984375 170.36 C 79.12746803517273 170.36 75.24162571022727 166.47383206400002 75.24162571022727 161.68 Z" fill="none" stroke="#000000" stroke-miterlimit="10"/></g><g transform="translate(-38,-54) scale(1,1)"><path d="M 83.9208984375 170.36 L 83.9208984375 187.64" fill="none" stroke="#000000" stroke-miterlimit="10"/></g><g transform="translate(-38,-54) scale(1,1)"><path d="M 74.73108025568182 176.84 L 93.11071661931818 176.84" fill="none" stroke="#000000" stroke-miterlimit="10"/></g><g transform="translate(-38,-54) scale(1,1)"><path d="M 83.9208984375 187.64 L 71.15726207386363 205" fill="none" stroke="#000000" stroke-miterlimit="10"/></g><g transform="translate(-38,-54) scale(1,1)"><path d="M 83.9208984375 187.64 L 96.68453480113637 205" fill="none" stroke="#000000" stroke-miterlimit="10"/></g><g transform="translate(-38,-54) scale(1,1)"><g><path fill="none" stroke="none"/><text fill="#000000" font-family="Arial" font-size="13px" font-style="normal" font-weight="bold" stroke="none" text-decoration="none" x="52.5" y="224">Candidate</text></g></g><g transform="translate(-38,-54) scale(1,1)"><path d="M 72.35978977272727 705.6800000000001 C 72.35978977272727 700.8861679360001 76.24563209767273 697 81.0390625 697 C 85.83249290232727 697 89.71833522727273 700.8861679360001 89.71833522727273 705.6800000000001 C 89.71833522727273 710.473832064 85.83249290232727 714.36 81.0390625 714.36 C 76.24563209767273 714.36 72.35978977272727 710.473832064 72.35978977272727 705.6800000000001 Z" fill="#ffffff" stroke="none"/></g><g transform="translate(-38,-54) scale(1,1)"><path d="M 72.35978977272727 705.6800000000001 C 72.35978977272727 700.8861679360001 76.24563209767273 697 81.0390625 697 C 85.83249290232727 697 89.71833522727273 700.8861679360001 89.71833522727273 705.6800000000001 C 89.71833522727273 710.473832064 85.83249290232727 714.36 81.0390625 714.36 C 76.24563209767273 714.36 72.35978977272727 710.473832064 72.35978977272727 705.6800000000001 Z" fill="none" stroke="#000000" stroke-miterlimit="10"/></g><g transform="translate(-38,-54) scale(1,1)"><path d="M 81.0390625 714.36 L 81.0390625 731.64" fill="none" stroke="#000000" stroke-miterlimit="10"/></g><g transform="translate(-38,-54) scale(1,1)"><path d="M 71.84924431818182 720.84 L 90.22888068181818 720.84" fill="none" stroke="#000000" stroke-miterlimit="10"/></g><g transform="translate(-38,-54) scale(1,1)"><path d="M 81.0390625 731.64 L 68.27542613636363 749" fill="none" stroke="#000000" stroke-miterlimit="10"/></g><g transform="translate(-38,-54) scale(1,1)"><path d="M 81.0390625 731.64 L 93.80269886363637 749" fill="none" stroke="#000000" stroke-miterlimit="10"/></g><g transform="translate(-38,-54) scale(1,1)"><g><path fill="none" stroke="none"/><text fill="#000000" font-family="Arial" font-size="13px" font-style="normal" font-weight="bold" stroke="none" text-decoration="none" x="52.5" y="768">Recruiter</text></g></g><g transform="translate(-38,-54) scale(1,1)"><path d="M 1328.4093503196023 353.68 C 1328.4093503196023 348.886167936 1332.2951926445478 345 1337.088623046875 345 C 1341.8820534492022 345 1345.7678957741477 348.886167936 1345.7678957741477 353.68 C 1345.7678957741477 358.473832064 1341.8820534492022 362.36 1337.088623046875 362.36 C 1332.2951926445478 362.36 1328.4093503196023 358.473832064 1328.4093503196023 353.68 Z" fill="#ffffff" stroke="none"/></g><g transform="translate(-38,-54) scale(1,1)"><path d="M 1328.4093503196023 353.68 C 1328.4093503196023 348.886167936 1332.2951926445478 345 1337.088623046875 345 C 1341.8820534492022 345 1345.7678957741477 348.886167936 1345.7678957741477 353.68 C 1345.7678957741477 358.473832064 1341.8820534492022 362.36 1337.088623046875 362.36 C 1332.2951926445478 362.36 1328.4093503196023 358.473832064 1328.4093503196023 353.68 Z" fill="none" stroke="#000000" stroke-miterlimit="10"/></g><g transform="translate(-38,-54) scale(1,1)"><path d="M 1337.088623046875 362.36 L 1337.088623046875 379.64" fill="none" stroke="#000000" stroke-miterlimit="10"/></g><g transform="translate(-38,-54) scale(1,1)"><path d="M 1327.8988048650567 368.84 L 1346.2784412286933 368.84" fill="none" stroke="#000000" stroke-miterlimit="10"/></g><g transform="translate(-38,-54) scale(1,1)"><path d="M 1337.088623046875 379.64 L 1324.3249866832386 397" fill="none" stroke="#000000" stroke-miterlimit="10"/></g><g transform="translate(-38,-54) scale(1,1)"><path d="M 1337.088623046875 379.64 L 1349.8522594105114 397" fill="none" stroke="#000000" stroke-miterlimit="10"/></g><g transform="translate(-38,-54) scale(1,1)"><g><path fill="none" stroke="none"/><text fill="#000000" font-family="Arial" font-size="13px" font-style="normal" font-weight="bold" stroke="none" text-decoration="none" x="1327.700439453125" y="416">DB</text></g></g><g transform="translate(-38,-54) scale(1,1)"><path d="M 527 616 C 527 606.6111584 562.3695008 599 606 599 C 649.6304992 599 685 606.6111584 685 616 C 685 625.3888416 649.6304992 633 606 633 C 562.3695008 633 527 625.3888416 527 616 Z" fill="#C0C0C0" opacity="0.2" stroke="none"/></g><g transform="translate(-38,-54) scale(1,1)"><path d="M 520 609 C 520 599.6111584 555.3695008 592 599 592 C 642.6304992 592 678 599.6111584 678 609 C 678 618.3888416 642.6304992 626 599 626 C 555.3695008 626 520 618.3888416 520 609 Z" fill="#ffffff" stroke="none"/></g><g transform="translate(-38,-54) scale(1,1)"><path d="M 520 609 C 520 599.6111584 555.3695008 592 599 592 C 642.6304992 592 678 599.6111584 678 609 C 678 618.3888416 642.6304992 626 599 626 C 555.3695008 626 520 618.3888416 520 609 Z" fill="none" stroke="#000000" stroke-miterlimit="10"/></g><g transform="translate(-38,-54) scale(1,1)"><g><path fill="none" stroke="none"/><text fill="#000000" font-family="Arial" font-size="13px" font-style="normal" font-weight="bold" stroke="none" text-decoration="none" x="581.312255859375" y="614.5">Login</text></g></g><g transform="translate(-38,-54) scale(1,1)"><path d="M 106 375 L 471 377" fill="none" stroke="#000000" stroke-miterlimit="10"/></g><g transform="translate(-38,-54) scale(1,1)"><path d="M 115 735 L 192 736 L 192 608 L 519 609" fill="none" stroke="#000000" stroke-miterlimit="10"/></g><g transform="translate(-38,-54) scale(1,1)"><path d="M 679 609 L 1184 608 L 1184 384 L 1311 383" fill="none" stroke="#000000" stroke-miterlimit="10"/></g><g transform="translate(-38,-54) scale(1,1)"><path d="M 495 88 C 495 78.6111584 524.9969184 71 562 71 C 599.0030816 71 629 78.6111584 629 88 C 629 97.3888416 599.0030816 105 562 105 C 524.9969184 105 495 97.3888416 495 88 Z" fill="#C0C0C0" opacity="0.2" stroke="none"/></g><g transform="translate(-38,-54) scale(1,1)"><path d="M 488 81 C 488 71.6111584 517.9969184 64 555 64 C 592.0030816 64 622 71.6111584 622 81 C 622 90.3888416 592.0030816 98 555 98 C 517.9969184 98 488 90.3888416 488 81 Z" fill="#ffffff" stroke="none"/></g><g transform="translate(-38,-54) scale(1,1)"><path d="M 488 81 C 488 71.6111584 517.9969184 64 555 64 C 592.0030816 64 622 71.6111584 622 81 C 622 90.3888416 592.0030816 98 555 98 C 517.9969184 98 488 90.3888416 488 81 Z" fill="none" stroke="#000000" stroke-miterlimit="10"/></g><g transform="translate(-38,-54) scale(1,1)"><g><path fill="none" stroke="none"/><text fill="#000000" font-family="Arial" font-size="13px" font-style="normal" font-weight="bold" stroke="none" text-decoration="none" x="512.029541015625" y="86.5">Apply to a job</text></g></g><g transform="translate(-38,-54) scale(1,1)"><path d="M 121 191 L 184 192 L 184 80 L 487 81" fill="none" stroke="#000000" stroke-miterlimit="10"/></g><g transform="translate(-38,-54) scale(1,1)"><path d="M 487 264 C 487 254.6111584 525.9512224 247 574 247 C 622.0487776 247 661 254.6111584 661 264 C 661 273.3888416 622.0487776 281 574 281 C 525.9512224 281 487 273.3888416 487 264 Z" fill="#C0C0C0" opacity="0.2" stroke="none"/></g><g transform="translate(-38,-54) scale(1,1)"><path d="M 480 257 C 480 247.6111584 518.9512224 240 567 240 C 615.0487776 240 654 247.6111584 654 257 C 654 266.3888416 615.0487776 274 567 274 C 518.9512224 274 480 266.3888416 480 257 Z" fill="#ffffff" stroke="none"/></g><g transform="translate(-38,-54) scale(1,1)"><path d="M 480 257 C 480 247.6111584 518.9512224 240 567 240 C 615.0487776 240 654 247.6111584 654 257 C 654 266.3888416 615.0487776 274 567 274 C 518.9512224 274 480 266.3888416 480 257 Z" fill="none" stroke="#000000" stroke-miterlimit="10"/></g><g transform="translate(-38,-54) scale(1,1)"><g><path fill="none" stroke="none"/><text fill="#000000" font-family="Arial" font-size="13px" font-style="normal" font-weight="bold" stroke="none" text-decoration="none" x="509.925048828125" y="262.5">Search on website</text></g></g><g transform="translate(-38,-54) scale(1,1)"><path d="M 121 191 L 184 192 L 184 256 L 479 257" fill="none" stroke="#000000" stroke-miterlimit="10"/></g><g transform="translate(-38,-54) scale(1,1)"><path d="M 655 257 L 1184 256 L 1184 384 L 1311 383" fill="none" stroke="#000000" stroke-miterlimit="10"/></g><g transform="translate(-38,-54) scale(1,1)"><path d="M 623 81 L 1184 80 L 1184 384 L 1311 383" fill="none" stroke="#000000" stroke-miterlimit="10"/></g><g transform="translate(-38,-54) scale(1,1)"><path d="M 343 872 C 343 862.6111584 391.5770992 855 451.5 855 C 511.4229008 855 560 862.6111584 560 872 C 560 881.3888416 511.4229008 889 451.5 889 C 391.5770992 889 343 881.3888416 343 872 Z" fill="#C0C0C0" opacity="0.2" stroke="none"/></g><g transform="translate(-38,-54) scale(1,1)"><path d="M 336 865 C 336 855.6111584 384.5770992 848 444.5 848 C 504.4229008 848 553 855.6111584 553 865 C 553 874.3888416 504.4229008 882 444.5 882 C 384.5770992 882 336 874.3888416 336 865 Z" fill="#ffffff" stroke="none"/></g><g transform="translate(-38,-54) scale(1,1)"><path d="M 336 865 C 336 855.6111584 384.5770992 848 444.5 848 C 504.4229008 848 553 855.6111584 553 865 C 553 874.3888416 504.4229008 882 444.5 882 C 384.5770992 882 336 874.3888416 336 865 Z" fill="none" stroke="#000000" stroke-miterlimit="10"/></g><g transform="translate(-38,-54) scale(1,1)"><g><path fill="none" stroke="none"/><text fill="#000000" font-family="Arial" font-size="13px" font-style="normal" font-weight="bold" stroke="none" text-decoration="none" x="405.604736328125" y="870.5">View History</text></g></g><g transform="translate(-38,-54) scale(1,1)"><path d="M 663 872 C 663 862.6111584 710.9055264 855 770 855 C 829.0944736 855 877 862.6111584 877 872 C 877 881.3888416 829.0944736 889 770 889 C 710.9055264 889 663 881.3888416 663 872 Z" fill="#C0C0C0" opacity="0.2" stroke="none"/></g><g transform="translate(-38,-54) scale(1,1)"><path d="M 656 865 C 656 855.6111584 703.9055264 848 763 848 C 822.0944736 848 870 855.6111584 870 865 C 870 874.3888416 822.0944736 882 763 882 C 703.9055264 882 656 874.3888416 656 865 Z" fill="#ffffff" stroke="none"/></g><g transform="translate(-38,-54) scale(1,1)"><path d="M 656 865 C 656 855.6111584 703.9055264 848 763 848 C 822.0944736 848 870 855.6111584 870 865 C 870 874.3888416 822.0944736 882 763 882 C 703.9055264 882 656 874.3888416 656 865 Z" fill="none" stroke="#000000" stroke-miterlimit="10"/></g><g transform="translate(-38,-54) scale(1,1)"><g><path fill="none" stroke="none"/><text fill="#000000" font-family="Arial" font-size="13px" font-style="normal" font-weight="bold" stroke="none" text-decoration="none" x="725.183837890625" y="870.5">View Details</text></g></g><g transform="translate(-38,-54) scale(1,1)"><path d="M 535 744 C 535 734.6111584 574.17508 727 622.5 727 C 670.82492 727 710 734.6111584 710 744 C 710 753.3888416 670.82492 761 622.5 761 C 574.17508 761 535 753.3888416 535 744 Z" fill="#C0C0C0" opacity="0.2" stroke="none"/></g><g transform="translate(-38,-54) scale(1,1)"><path d="M 528 737 C 528 727.6111584 567.17508 720 615.5 720 C 663.82492 720 703 727.6111584 703 737 C 703 746.3888416 663.82492 754 615.5 754 C 567.17508 754 528 746.3888416 528 737 Z" fill="#ffffff" stroke="none"/></g><g transform="translate(-38,-54) scale(1,1)"><path d="M 528 737 C 528 727.6111584 567.17508 720 615.5 720 C 663.82492 720 703 727.6111584 703 737 C 703 746.3888416 663.82492 754 615.5 754 C 567.17508 754 528 746.3888416 528 737 Z" fill="none" stroke="#000000" stroke-miterlimit="10"/></g><g transform="translate(-38,-54) scale(1,1)"><g><path fill="none" stroke="none"/><text fill="#000000" font-family="Arial" font-size="13px" font-style="normal" font-weight="bold" stroke="none" text-decoration="none" x="558.07275390625" y="742.5">Manage Candidate</text></g></g><g transform="translate(-38,-54) scale(1,1)"><path d="M 519 928 C 519 918.6111584 561.7568016 911 614.5 911 C 667.2431984 911 710 918.6111584 710 928 C 710 937.3888416 667.2431984 945 614.5 945 C 561.7568016 945 519 937.3888416 519 928 Z" fill="#C0C0C0" opacity="0.2" stroke="none"/></g><g transform="translate(-38,-54) scale(1,1)"><path d="M 512 921 C 512 911.6111584 554.7568016 904 607.5 904 C 660.2431984 904 703 911.6111584 703 921 C 703 930.3888416 660.2431984 938 607.5 938 C 554.7568016 938 512 930.3888416 512 921 Z" fill="#ffffff" stroke="none"/></g><g transform="translate(-38,-54) scale(1,1)"><path d="M 512 921 C 512 911.6111584 554.7568016 904 607.5 904 C 660.2431984 904 703 911.6111584 703 921 C 703 930.3888416 660.2431984 938 607.5 938 C 554.7568016 938 512 930.3888416 512 921 Z" fill="none" stroke="#000000" stroke-miterlimit="10"/></g><g transform="translate(-38,-54) scale(1,1)"><g><path fill="none" stroke="none"/><text fill="#000000" font-family="Arial" font-size="13px" font-style="normal" font-weight="bold" stroke="none" text-decoration="none" x="544.293212890625" y="926.5">Job Request History</text></g></g><g transform="translate(-38,-54) scale(1,1)"><path d="M 468 847 L 591 755" fill="none" stroke="#000000" stroke-dasharray="3" stroke-miterlimit="10"/></g><g transform="translate(-38,-54) scale(1,1)"><path d="M 585.3832510248236 764.4579136679215 L 591 755 L 580.3406038209661 757.7161136018944" fill="none" stroke="#000000" stroke-miterlimit="10"/></g><g transform="translate(-38,-54) scale(1,1)"><g><path fill="none" stroke="none"/><text fill="#000000" font-family="Arial" font-size="13px" font-style="normal" font-weight="normal" stroke="none" text-decoration="none" x="483.5" y="781">«include»</text></g></g><g transform="translate(-38,-54) scale(1,1)"><path d="M 608 903 L 614 755" fill="none" stroke="#000000" stroke-dasharray="3" stroke-miterlimit="10"/></g><g transform="translate(-38,-54) scale(1,1)"><path d="M 617.7944005881858 765.3248498379577 L 614 755 L 609.3822750512917 764.9838177215971" fill="none" stroke="#000000" stroke-miterlimit="10"/></g><g transform="translate(-38,-54) scale(1,1)"><g><path fill="none" stroke="none"/><text fill="#000000" font-family="Arial" font-size="13px" font-style="normal" font-weight="normal" stroke="none" text-decoration="none" x="553.5" y="832">«include»</text></g></g><g transform="translate(-38,-54) scale(1,1)"><path d="M 742 847 L 636 755" fill="none" stroke="#000000" stroke-dasharray="3" stroke-miterlimit="10"/></g><g transform="translate(-38,-54) scale(1,1)"><path d="M 646.4342670403638 758.4822508999753 L 636 755 L 640.9158177557871 764.840464206118" fill="none" stroke="#000000" stroke-miterlimit="10"/></g><g transform="translate(-38,-54) scale(1,1)"><g><path fill="none" stroke="none"/><text fill="#000000" font-family="Arial" font-size="13px" font-style="normal" font-weight="normal" stroke="none" text-decoration="none" x="641.5" y="828">«include»</text></g></g><g transform="translate(-38,-54) scale(1,1)"><path d="M 783 784 C 783 774.6111584 813.4446336 767 851 767 C 888.5553664 767 919 774.6111584 919 784 C 919 793.3888416 888.5553664 801 851 801 C 813.4446336 801 783 793.3888416 783 784 Z" fill="#C0C0C0" opacity="0.2" stroke="none"/></g><g transform="translate(-38,-54) scale(1,1)"><path d="M 776 777 C 776 767.6111584 806.4446336 760 844 760 C 881.5553664 760 912 767.6111584 912 777 C 912 786.3888416 881.5553664 794 844 794 C 806.4446336 794 776 786.3888416 776 777 Z" fill="#ffffff" stroke="none"/></g><g transform="translate(-38,-54) scale(1,1)"><path d="M 776 777 C 776 767.6111584 806.4446336 760 844 760 C 881.5553664 760 912 767.6111584 912 777 C 912 786.3888416 881.5553664 794 844 794 C 806.4446336 794 776 786.3888416 776 777 Z" fill="none" stroke="#000000" stroke-miterlimit="10"/></g><g transform="translate(-38,-54) scale(1,1)"><g><path fill="none" stroke="none"/><text fill="#000000" font-family="Arial" font-size="13px" font-style="normal" font-weight="bold" stroke="none" text-decoration="none" x="800.299560546875" y="782.5">Update Status</text></g></g><g transform="translate(-38,-54) scale(1,1)"><path d="M 775 765 L 704 753" fill="none" stroke="#000000" stroke-dasharray="3" stroke-miterlimit="10"/></g><g transform="translate(-38,-54) scale(1,1)"><path d="M 714.7220787871319 750.5429638825333 L 704 753 L 713.3190415190784 758.8442677185163" fill="none" stroke="#000000" stroke-miterlimit="10"/></g><g transform="translate(-38,-54) scale(1,1)"><g><path fill="none" stroke="none"/><text fill="#000000" font-family="Arial" font-size="13px" font-style="normal" font-weight="normal" stroke="none" text-decoration="none" x="705.5" y="793">«include»</text></g></g><g transform="translate(-38,-54) scale(1,1)"><path d="M 559 1016 C 559 1006.6111584 587.8776304 999 623.5 999 C 659.1223696 999 688 1006.6111584 688 1016 C 688 1025.3888416 659.1223696 1033 623.5 1033 C 587.8776304 1033 559 1025.3888416 559 1016 Z" fill="#C0C0C0" opacity="0.2" stroke="none"/></g><g transform="translate(-38,-54) scale(1,1)"><path d="M 552 1009 C 552 999.6111584 580.8776304 992 616.5 992 C 652.1223696 992 681 999.6111584 681 1009 C 681 1018.3888416 652.1223696 1026 616.5 1026 C 580.8776304 1026 552 1018.3888416 552 1009 Z" fill="#ffffff" stroke="none"/></g><g transform="translate(-38,-54) scale(1,1)"><path d="M 552 1009 C 552 999.6111584 580.8776304 992 616.5 992 C 652.1223696 992 681 999.6111584 681 1009 C 681 1018.3888416 652.1223696 1026 616.5 1026 C 580.8776304 1026 552 1018.3888416 552 1009 Z" fill="none" stroke="#000000" stroke-miterlimit="10"/></g><g transform="translate(-38,-54) scale(1,1)"><g><path fill="none" stroke="none"/><text fill="#000000" font-family="Arial" font-size="13px" font-style="normal" font-weight="bold" stroke="none" text-decoration="none" x="575.32275390625" y="1014.5">Manage Jobs</text></g></g><g transform="translate(-38,-54) scale(1,1)"><path d="M 431 1120 C 431 1110.6111584 453.6096176 1103 481.5 1103 C 509.3903824 1103 532 1110.6111584 532 1120 C 532 1129.3888416 509.3903824 1137 481.5 1137 C 453.6096176 1137 431 1129.3888416 431 1120 Z" fill="#C0C0C0" opacity="0.2" stroke="none"/></g><g transform="translate(-38,-54) scale(1,1)"><path d="M 424 1113 C 424 1103.6111584 446.6096176 1096 474.5 1096 C 502.3903824 1096 525 1103.6111584 525 1113 C 525 1122.3888416 502.3903824 1130 474.5 1130 C 446.6096176 1130 424 1122.3888416 424 1113 Z" fill="#ffffff" stroke="none"/></g><g transform="translate(-38,-54) scale(1,1)"><path d="M 424 1113 C 424 1103.6111584 446.6096176 1096 474.5 1096 C 502.3903824 1096 525 1103.6111584 525 1113 C 525 1122.3888416 502.3903824 1130 474.5 1130 C 446.6096176 1130 424 1122.3888416 424 1113 Z" fill="none" stroke="#000000" stroke-miterlimit="10"/></g><g transform="translate(-38,-54) scale(1,1)"><g><path fill="none" stroke="none"/><text fill="#000000" font-family="Arial" font-size="13px" font-style="normal" font-weight="bold" stroke="none" text-decoration="none" x="461.864990234375" y="1118.5">Add</text></g></g><g transform="translate(-38,-54) scale(1,1)"><path d="M 711 1104 C 711 1094.6111584 733.6096176 1087 761.5 1087 C 789.3903824 1087 812 1094.6111584 812 1104 C 812 1113.3888416 789.3903824 1121 761.5 1121 C 733.6096176 1121 711 1113.3888416 711 1104 Z" fill="#C0C0C0" opacity="0.2" stroke="none"/></g><g transform="translate(-38,-54) scale(1,1)"><path d="M 704 1097 C 704 1087.6111584 726.6096176 1080 754.5 1080 C 782.3903824 1080 805 1087.6111584 805 1097 C 805 1106.3888416 782.3903824 1114 754.5 1114 C 726.6096176 1114 704 1106.3888416 704 1097 Z" fill="#ffffff" stroke="none"/></g><g transform="translate(-38,-54) scale(1,1)"><path d="M 704 1097 C 704 1087.6111584 726.6096176 1080 754.5 1080 C 782.3903824 1080 805 1087.6111584 805 1097 C 805 1106.3888416 782.3903824 1114 754.5 1114 C 726.6096176 1114 704 1106.3888416 704 1097 Z" fill="none" stroke="#000000" stroke-miterlimit="10"/></g><g transform="translate(-38,-54) scale(1,1)"><g><path fill="none" stroke="none"/><text fill="#000000" font-family="Arial" font-size="13px" font-style="normal" font-weight="bold" stroke="none" text-decoration="none" x="729.2109375" y="1102.5">Remove</text></g></g><g transform="translate(-38,-54) scale(1,1)"><path d="M 575 1144 C 575 1134.6111584 597.6096176 1127 625.5 1127 C 653.3903824 1127 676 1134.6111584 676 1144 C 676 1153.3888416 653.3903824 1161 625.5 1161 C 597.6096176 1161 575 1153.3888416 575 1144 Z" fill="#C0C0C0" opacity="0.2" stroke="none"/></g><g transform="translate(-38,-54) scale(1,1)"><path d="M 568 1137 C 568 1127.6111584 590.6096176 1120 618.5 1120 C 646.3903824 1120 669 1127.6111584 669 1137 C 669 1146.3888416 646.3903824 1154 618.5 1154 C 590.6096176 1154 568 1146.3888416 568 1137 Z" fill="#ffffff" stroke="none"/></g><g transform="translate(-38,-54) scale(1,1)"><path d="M 568 1137 C 568 1127.6111584 590.6096176 1120 618.5 1120 C 646.3903824 1120 669 1127.6111584 669 1137 C 669 1146.3888416 646.3903824 1154 618.5 1154 C 590.6096176 1154 568 1146.3888416 568 1137 Z" fill="none" stroke="#000000" stroke-miterlimit="10"/></g><g transform="translate(-38,-54) scale(1,1)"><g><path fill="none" stroke="none"/><text fill="#000000" font-family="Arial" font-size="13px" font-style="normal" font-weight="bold" stroke="none" text-decoration="none" x="606.2236328125" y="1142.5">Edit</text></g></g><g transform="translate(-38,-54) scale(1,1)"><path d="M 499 1095 L 591 1027" fill="none" stroke="#000000" stroke-dasharray="3" stroke-miterlimit="10"/></g><g transform="translate(-38,-54) scale(1,1)"><path d="M 585.3295190716684 1036.4257968385398 L 591 1027 L 580.3253196203696 1029.655409345606" fill="none" stroke="#000000" stroke-miterlimit="10"/></g><g transform="translate(-38,-54) scale(1,1)"><g><path fill="none" stroke="none"/><text fill="#000000" font-family="Arial" font-size="13px" font-style="normal" font-weight="normal" stroke="none" text-decoration="none" x="499.5" y="1041">«include»</text></g></g><g transform="translate(-38,-54) scale(1,1)"><path d="M 618 1119 L 616 1027" fill="none" stroke="#000000" stroke-dasharray="3" stroke-miterlimit="10"/></g><g transform="translate(-38,-54) scale(1,1)"><path d="M 620.429398949577 1037.0687846806595 L 616 1027 L 612.0123521078249 1037.2517639598282" fill="none" stroke="#000000" stroke-miterlimit="10"/></g><g transform="translate(-38,-54) scale(1,1)"><g><path fill="none" stroke="none"/><text fill="#000000" font-family="Arial" font-size="13px" font-style="normal" font-weight="normal" stroke="none" text-decoration="none" x="559.5" y="1078">«include»</text></g></g><g transform="translate(-38,-54) scale(1,1)"><path d="M 726 1079 L 644 1027" fill="none" stroke="#000000" stroke-dasharray="3" stroke-miterlimit="10"/></g><g transform="translate(-38,-54) scale(1,1)"><path d="M 654.8368397620972 1028.8875656202185 L 644 1027 L 650.3280924324198 1035.997513332402" fill="none" stroke="#000000" stroke-miterlimit="10"/></g><g transform="translate(-38,-54) scale(1,1)"><g><path fill="none" stroke="none"/><text fill="#000000" font-family="Arial" font-size="13px" font-style="normal" font-weight="normal" stroke="none" text-decoration="none" x="640.5" y="1083">«include»</text></g></g><g transform="translate(-38,-54) scale(1,1)"><path d="M 115 735 L 200 736 L 527 737" fill="none" stroke="#000000" stroke-miterlimit="10"/></g><g transform="translate(-38,-54) scale(1,1)"><path d="M 115 735 L 192 736 L 192 1008 L 551 1009" fill="none" stroke="#000000" stroke-miterlimit="10"/></g><g transform="translate(-38,-54) scale(1,1)"><path d="M 80 416 L 81 695" fill="none" stroke="#000000" stroke-miterlimit="10"/></g><g transform="translate(-38,-54) scale(1,1)"><path d="M 76.754084158988 684.852478200514 L 81 695 L 85.17306559312789 684.8223026398182" fill="none" stroke="#000000" stroke-miterlimit="10"/></g><g transform="translate(-38,-54) scale(1,1)"><path d="M 479 384 C 479 374.6111584 516.3842192 367 562.5 367 C 608.6157808 367 646 374.6111584 646 384 C 646 393.3888416 608.6157808 401 562.5 401 C 516.3842192 401 479 393.3888416 479 384 Z" fill="#C0C0C0" opacity="0.2" stroke="none"/></g><g transform="translate(-38,-54) scale(1,1)"><path d="M 472 377 C 472 367.6111584 509.3842192 360 555.5 360 C 601.6157808 360 639 367.6111584 639 377 C 639 386.3888416 601.6157808 394 555.5 394 C 509.3842192 394 472 386.3888416 472 377 Z" fill="#ffffff" stroke="none"/></g><g transform="translate(-38,-54) scale(1,1)"><path d="M 472 377 C 472 367.6111584 509.3842192 360 555.5 360 C 601.6157808 360 639 367.6111584 639 377 C 639 386.3888416 601.6157808 394 555.5 394 C 509.3842192 394 472 386.3888416 472 377 Z" fill="none" stroke="#000000" stroke-miterlimit="10"/></g><g transform="translate(-38,-54) scale(1,1)"><g><path fill="none" stroke="none"/><text fill="#000000" font-family="Arial" font-size="13px" font-style="normal" font-weight="bold" stroke="none" text-decoration="none" x="500.95458984375" y="382.5">Manage Recruiter</text></g></g><g transform="translate(-38,-54) scale(1,1)"><path d="M 407 504 C 407 494.6111584 429.6096176 487 457.5 487 C 485.3903824 487 508 494.6111584 508 504 C 508 513.3888416 485.3903824 521 457.5 521 C 429.6096176 521 407 513.3888416 407 504 Z" fill="#C0C0C0" opacity="0.2" stroke="none"/></g><g transform="translate(-38,-54) scale(1,1)"><path d="M 400 497 C 400 487.6111584 422.6096176 480 450.5 480 C 478.3903824 480 501 487.6111584 501 497 C 501 506.3888416 478.3903824 514 450.5 514 C 422.6096176 514 400 506.3888416 400 497 Z" fill="#ffffff" stroke="none"/></g><g transform="translate(-38,-54) scale(1,1)"><path d="M 400 497 C 400 487.6111584 422.6096176 480 450.5 480 C 478.3903824 480 501 487.6111584 501 497 C 501 506.3888416 478.3903824 514 450.5 514 C 422.6096176 514 400 506.3888416 400 497 Z" fill="none" stroke="#000000" stroke-miterlimit="10"/></g><g transform="translate(-38,-54) scale(1,1)"><g><path fill="none" stroke="none"/><text fill="#000000" font-family="Arial" font-size="13px" font-style="normal" font-weight="bold" stroke="none" text-decoration="none" x="437.864990234375" y="502.5">Add</text></g></g><g transform="translate(-38,-54) scale(1,1)"><path d="M 599 488 C 599 478.6111584 621.6096176 471 649.5 471 C 677.3903824 471 700 478.6111584 700 488 C 700 497.3888416 677.3903824 505 649.5 505 C 621.6096176 505 599 497.3888416 599 488 Z" fill="#C0C0C0" opacity="0.2" stroke="none"/></g><g transform="translate(-38,-54) scale(1,1)"><path d="M 592 481 C 592 471.6111584 614.6096176 464 642.5 464 C 670.3903824 464 693 471.6111584 693 481 C 693 490.3888416 670.3903824 498 642.5 498 C 614.6096176 498 592 490.3888416 592 481 Z" fill="#ffffff" stroke="none"/></g><g transform="translate(-38,-54) scale(1,1)"><path d="M 592 481 C 592 471.6111584 614.6096176 464 642.5 464 C 670.3903824 464 693 471.6111584 693 481 C 693 490.3888416 670.3903824 498 642.5 498 C 614.6096176 498 592 490.3888416 592 481 Z" fill="none" stroke="#000000" stroke-miterlimit="10"/></g><g transform="translate(-38,-54) scale(1,1)"><g><path fill="none" stroke="none"/><text fill="#000000" font-family="Arial" font-size="13px" font-style="normal" font-weight="bold" stroke="none" text-decoration="none" x="617.2109375" y="486.5">Remove</text></g></g><g transform="translate(-38,-54) scale(1,1)"><path d="M 466 479 L 539 395" fill="none" stroke="#000000" stroke-dasharray="3" stroke-miterlimit="10"/></g><g transform="translate(-38,-54) scale(1,1)"><path d="M 535.5110697464874 405.43203554854585 L 539 395 L 529.1563906806985 399.90951683661024" fill="none" stroke="#000000" stroke-miterlimit="10"/></g><g transform="translate(-38,-54) scale(1,1)"><g><path fill="none" stroke="none"/><text fill="#000000" font-family="Arial" font-size="13px" font-style="normal" font-weight="normal" stroke="none" text-decoration="none" x="442.5" y="438">«include»</text></g></g><g transform="translate(-38,-54) scale(1,1)"><path d="M 627 463 L 570 395" fill="none" stroke="#000000" stroke-dasharray="3" stroke-miterlimit="10"/></g><g transform="translate(-38,-54) scale(1,1)"><path d="M 579.7545405542127 400.0841851437788 L 570 395 L 573.302439981269 405.4925635652168" fill="none" stroke="#000000" stroke-miterlimit="10"/></g><g transform="translate(-38,-54) scale(1,1)"><g><path fill="none" stroke="none"/><text fill="#000000" font-family="Arial" font-size="13px" font-style="normal" font-weight="normal" stroke="none" text-decoration="none" x="546.5" y="453">«include»</text></g></g><g transform="translate(-38,-54) scale(1,1)"><path d="M 704 737 L 1184 736 L 1184 384 L 1311 383" fill="none" stroke="#000000" stroke-miterlimit="10"/></g><g transform="translate(-38,-54) scale(1,1)"><path d="M 682 1009 L 1184 1008 L 1184 382 L 1311 383" fill="none" stroke="#000000" stroke-miterlimit="10"/></g><g transform="translate(-38,-54) scale(1,1)"><path d="M 640 378 L 1311 383" fill="none" stroke="#000000" stroke-miterlimit="10"/></g></g></svg>